<?xml version="1.0" encoding="UTF-8"?>
<svg id="Layer_1" data-name="Layer 1" xmlns="http://www.w3.org/2000/svg" viewBox="0 0 212.81 123">
  <defs>
    <style>
      .cls-1 {
        fill: #293682;
      }

      .cls-2 {
        fill: #ef4237;
      }

      .cls-3 {
        fill: #be202e;
      }
    </style>
  </defs>
  <g>
    <path class="cls-1" d="M70.91,60.13c0-5.08,3.23-8.43,8.1-8.43,4.07,0,7,2.33,7.5,5.98h-3.76c-.48-1.63-1.87-2.55-3.83-2.55-2.64,0-4.25,1.87-4.25,4.97s1.63,4.97,4.25,4.97c2,0,3.48-.99,3.92-2.6h3.7c-.57,3.63-3.61,6.03-7.68,6.03-4.88,0-7.94-3.23-7.94-8.38Z"/>
    <path class="cls-1" d="M86.55,51.97h3.98l2.73,5.28c.26.51.44.9.62,1.32.2-.4.37-.81.64-1.34l2.73-5.26h3.87l-5.5,10.1v6.18h-3.56v-6.18l-5.5-10.1Z"/>
    <path class="cls-1" d="M104.57,60.27c0,3.28,1.85,4.91,4.44,4.91s3.87-1.45,4.03-3.15h-4.31v-3.12h7.66v9.35h-3.06l-.2-1.47c-.88,1.03-2.64,1.72-4.58,1.72-4.55,0-7.75-3.34-7.75-8.34s3.28-8.45,8.32-8.45c3.89,0,6.89,2.29,7.26,5.81h-3.74c-.42-1.72-1.92-2.46-3.61-2.46-2.95,0-4.47,2.07-4.47,5.21Z"/>
    <path class="cls-1" d="M119.33,68.25v-16.28h3.52l6.87,10.36v-10.36h3.52v16.28h-3.52l-6.87-10.34v10.34h-3.52Z"/>
    <path class="cls-1" d="M136.51,51.97h3.57v9.92c0,2.05,1.12,3.17,3.12,3.17s3.17-1.17,3.17-3.17v-9.92h3.57v10.17c0,3.87-2.64,6.38-6.73,6.38s-6.69-2.49-6.69-6.38v-10.17Z"/>
    <path class="cls-1" d="M158.29,51.66c3.5,0,5.7,1.94,5.7,5.02h-3.54c0-1.14-.86-1.85-2.2-1.85-1.45,0-2.38.66-2.38,1.74,0,.99.51,1.47,1.65,1.72l2.44.51c2.9.59,4.29,1.98,4.29,4.55,0,3.15-2.46,5.19-6.21,5.19s-5.98-1.96-5.98-5.02h3.54c0,1.19.88,1.85,2.46,1.85s2.62-.64,2.62-1.67c0-.9-.42-1.36-1.5-1.58l-2.49-.51c-2.91-.59-4.4-2.24-4.4-4.91,0-2.95,2.49-5.04,5.99-5.04Z"/>
    <path class="cls-1" d="M170.94,68.25l5.81-16.28h3.48l5.79,16.28h-3.78l-1.14-3.43h-5.26l-1.17,3.43h-3.72ZM176.86,61.83h3.21l-1.17-3.48c-.18-.55-.37-1.19-.44-1.58-.07.37-.24.99-.44,1.58l-1.17,3.48Z"/>
    <path class="cls-1" d="M191.47,68.25h-3.56v-16.28h3.56v16.28Z"/>
  </g>
  <g>
    <path class="cls-3" d="M21.73,50.25c-.24.41-.39.88-.39,1.3v19.9c0,.42.15.89.39,1.3.24.41.57.77.93.98l17.23,9.95c.36.21.84.32,1.32.32v-22.5l-19.48-11.25Z"/>
    <path class="cls-2" d="M59.76,49.27l-17.23-9.95c-.36-.21-.84-.32-1.32-.32s-.95.1-1.32.32l-.79.45-16.45,9.49c-.36.21-.69.57-.93.98l19.48,11.25,18.55-10.71c.73-.42.73-1.1,0-1.52Z"/>
    <path class="cls-2" d="M42.53,83.68l17.23-9.95c.73-.42.73-1.1,0-1.52l-18.55-10.71v22.5c.48,0,.95-.11,1.32-.32Z"/>
  </g>
</svg>